BodoniModa-6ptRegular.ufo
<glyph name="parenright" format="2">
  <advance width="723"/>
  <unicode hex="0029"/>
  <outline>
    <contour>
      <point x="39" y="-340" type="line"/>
      <point x="365" y="-199"/>
      <point x="595" y="144"/>
      <point x="595" y="610" type="curve" smooth="yes"/>
      <point x="595" y="1076"/>
      <point x="365" y="1459"/>
      <point x="39" y="1600" type="curve"/>
      <point x="6" y="1546" type="line"/>
      <point x="254" y="1386"/>
      <point x="405" y="994"/>
      <point x="405" y="610" type="curve" smooth="yes"/>
      <point x="405" y="226"/>
      <point x="254" y="-127"/>
      <point x="6" y="-287" type="curve"/>
    </contour>
  </outline>
</glyph>
<glyph name="zero" format="2">
  <advance width="1239"/>
  <unicode hex="0030"/>
  <outline>
    <contour>
      <point x="620" y="-20" type="curve" smooth="yes"/>
      <point x="946" y="-20"/>
      <point x="1160" y="324"/>
      <point x="1160" y="750" type="curve" smooth="yes"/>
      <point x="1160" y="1176"/>
      <point x="927" y="1520"/>
      <point x="620" y="1520" type="curve" smooth="yes"/>
      <point x="313" y="1520"/>
      <point x="80" y="1176"/>
      <point x="80" y="750" type="curve" smooth="yes"/>
      <point x="80" y="324"/>
      <point x="294" y="-20"/>
    </contour>
    <contour>
      <point x="620" y="47" type="curve" smooth="yes"/>
      <point x="352" y="47"/>
      <point x="311" y="387"/>
      <point x="311" y="750" type="curve" smooth="yes"/>
      <point x="311" y="1113"/>
      <point x="372" y="1453"/>
      <point x="620" y="1453" type="curve" smooth="yes"/>
      <point x="868" y="1453"/>
      <point x="930" y="1113"/>
      <point x="930" y="750" type="curve" smooth="yes"/>
      <point x="930" y="387"/>
      <point x="888" y="47"/>
    </contour>
  </outline>
</glyph>
<glyph name="H" format="2">
  <advance width="1572"/>
  <unicode hex="0048"/>
  <anchor x="786" y="0" name="bottom"/>
  <anchor x="358" y="0" name="cedilla"/>
  <anchor x="786" y="1500" name="top"/>
  <outline>
    <contour>
      <point x="1486" y="1500" type="line"/>
      <point x="916" y="1500" type="line"/>
      <point x="916" y="1427" type="line"/>
      <point x="1116" y="1427" type="line"/>
      <point x="1116" y="777" type="line"/>
      <point x="457" y="777" type="line"/>
      <point x="457" y="1427" type="line"/>
      <point x="656" y="1427" type="line"/>
      <point x="656" y="1500" type="line"/>
      <point x="86" y="1500" type="line"/>
      <point x="86" y="1427" type="line"/>
      <point x="267" y="1427" type="line"/>
      <point x="267" y="73" type="line"/>
      <point x="86" y="73" type="line"/>
      <point x="86" y="0" type="line"/>
      <point x="656" y="0" type="line"/>
      <point x="656" y="73" type="line"/>
      <point x="457" y="73" type="line"/>
      <point x="457" y="703" type="line"/>
      <point x="1116" y="703" type="line"/>
      <point x="1116" y="73" type="line"/>
      <point x="916" y="73" type="line"/>
      <point x="916" y="0" type="line"/>
      <point x="1486" y="0" type="line"/>
      <point x="1486" y="73" type="line"/>
      <point x="1307" y="73" type="line"/>
      <point x="1307" y="1427" type="line"/>
      <point x="1486" y="1427" type="line"/>
    </contour>
  </outline>
</glyph>
<glyph name="V" format="2">
  <advance width="1620"/>
  <unicode hex="0056"/>
  <anchor x="802" y="0" name="bottom"/>
  <anchor x="846" y="1500" name="top"/>
  <outline>
    <contour>
      <point x="1534" y="1500" type="line"/>
      <point x="1047" y="1500" type="line"/>
      <point x="1047" y="1427" type="line"/>
      <point x="1278" y="1427" type="line"/>
      <point x="859" y="223" type="line"/>
      <point x="471" y="1427" type="line"/>
      <point x="666" y="1427" type="line"/>
      <point x="666" y="1500" type="line"/>
      <point x="86" y="1500" type="line"/>
      <point x="86" y="1427" type="line"/>
      <point x="252" y="1427" type="line"/>
      <point x="757" y="-29" type="line"/>
      <point x="844" y="-29" type="line"/>
      <point x="1361" y="1427" type="line"/>
      <point x="1534" y="1427" type="line"/>
    </contour>
  </outline>
</glyph>
<glyph name="Y" format="2">
  <advance width="1522"/>
  <unicode hex="0059"/>
  <anchor x="766" y="0" name="bottom"/>
  <anchor x="776" y="1500" name="top"/>
  <outline>
    <contour>
      <point x="494" y="0" type="line"/>
      <point x="1064" y="0" type="line"/>
      <point x="1064" y="73" type="line"/>
      <point x="864" y="73" type="line"/>
      <point x="864" y="766" type="line"/>
      <point x="1309" y="1427" type="line"/>
      <point x="1434" y="1427" type="line"/>
      <point x="1434" y="1500" type="line"/>
      <point x="1039" y="1500" type="line"/>
      <point x="1039" y="1427" type="line"/>
      <point x="1225" y="1427" type="line"/>
      <point x="822" y="829" type="line"/>
      <point x="449" y="1427" type="line"/>
      <point x="645" y="1427" type="line"/>
      <point x="645" y="1500" type="line"/>
      <point x="64" y="1500" type="line"/>
      <point x="64" y="1427" type="line"/>
      <point x="230" y="1427" type="line"/>
      <point x="674" y="721" type="line"/>
      <point x="674" y="73" type="line"/>
      <point x="494" y="73" type="line"/>
    </contour>
  </outline>
</glyph>
<glyph name="w" format="2">
  <advance width="1508"/>
  <unicode hex="0077"/>
  <anchor x="776" y="0" name="bottom"/>
  <anchor x="776" y="920" name="top"/>
  <outline>
    <contour>
      <point x="1467" y="920" type="line"/>
      <point x="1127" y="920" type="line"/>
      <point x="1127" y="848" type="line"/>
      <point x="1285" y="848" type="line"/>
      <point x="1084" y="248" type="line"/>
      <point x="866" y="939" type="line"/>
      <point x="783" y="939" type="line"/>
      <point x="504" y="221" type="line"/>
      <point x="313" y="848" type="line"/>
      <point x="451" y="848" type="line"/>
      <point x="451" y="920" type="line"/>
      <point x="41" y="920" type="line"/>
      <point x="41" y="848" type="line"/>
      <point x="155" y="848" type="line"/>
      <point x="414" y="-20" type="line"/>
      <point x="492" y="-20" type="line"/>
      <point x="773" y="697" type="line"/>
      <point x="1004" y="-20" type="line"/>
      <point x="1076" y="-20" type="line"/>
      <point x="1367" y="848" type="line"/>
      <point x="1467" y="848" type="line"/>
    </contour>
  </outline>
</glyph>
<glyph name="z" format="2">
  <advance width="939"/>
  <unicode hex="007A"/>
  <anchor x="486" y="0" name="bottom"/>
  <anchor x="476" y="920" name="top"/>
  <outline>
    <contour>
      <point x="72" y="0" type="line"/>
      <point x="857" y="0" type="line"/>
      <point x="857" y="368" type="line"/>
      <point x="785" y="368" type="line"/>
      <point x="785" y="120"/>
      <point x="755" y="72"/>
      <point x="482" y="72" type="curve" smooth="yes"/>
      <point x="272" y="72" type="line"/>
      <point x="825" y="848" type="line"/>
      <point x="825" y="920" type="line"/>
      <point x="129" y="920" type="line"/>
      <point x="129" y="576" type="line"/>
      <point x="201" y="576" type="line"/>
      <point x="201" y="778"/>
      <point x="228" y="848"/>
      <point x="457" y="848" type="curve" smooth="yes"/>
      <point x="622" y="848" type="line"/>
      <point x="72" y="72" type="line"/>
    </contour>
  </outline>
</glyph>
<glyph name="currency" format="2">
  <advance width="1140"/>
  <unicode hex="00A4"/>
  <outline>
    <contour>
      <point x="111" y="258" type="line"/>
      <point x="268" y="415" type="line"/>
      <point x="345" y="350"/>
      <point x="448" y="310"/>
      <point x="571" y="310" type="curve" smooth="yes"/>
      <point x="693" y="310"/>
      <point x="796" y="350"/>
      <point x="872" y="415" type="curve"/>
      <point x="1029" y="258" type="line"/>
      <point x="1082" y="311" type="line"/>
      <point x="925" y="468" type="line"/>
      <point x="991" y="550"/>
      <point x="1028" y="656"/>
      <point x="1028" y="770" type="curve" smooth="yes"/>
      <point x="1028" y="884"/>
      <point x="991" y="990"/>
      <point x="924" y="1071" type="curve"/>
      <point x="1082" y="1229" type="line"/>
      <point x="1029" y="1282" type="line"/>
      <point x="872" y="1125" type="line"/>
      <point x="795" y="1190"/>
      <point x="693" y="1229"/>
      <point x="571" y="1229" type="curve" smooth="yes"/>
      <point x="448" y="1229"/>
      <point x="346" y="1190"/>
      <point x="269" y="1124" type="curve"/>
      <point x="111" y="1282" type="line"/>
      <point x="58" y="1229" type="line"/>
      <point x="216" y="1071" type="line"/>
      <point x="149" y="990"/>
      <point x="112" y="884"/>
      <point x="112" y="770" type="curve" smooth="yes"/>
      <point x="112" y="656"/>
      <point x="149" y="550"/>
      <point x="216" y="469" type="curve"/>
      <point x="58" y="311" type="line"/>
    </contour>
    <contour>
      <point x="571" y="393" type="curve" smooth="yes"/>
      <point x="338" y="393"/>
      <point x="202" y="572"/>
      <point x="202" y="770" type="curve" smooth="yes"/>
      <point x="202" y="968"/>
      <point x="338" y="1147"/>
      <point x="571" y="1147" type="curve" smooth="yes"/>
      <point x="804" y="1147"/>
      <point x="938" y="968"/>
      <point x="938" y="770" type="curve" smooth="yes"/>
      <point x="938" y="572"/>
      <point x="804" y="393"/>
    </contour>
  </outline>
</glyph>
<glyph name="yen" format="2">
  <advance width="1522"/>
  <unicode hex="00A5"/>
  <anchor x="766" y="0" name="bottom"/>
  <anchor x="776" y="1500" name="top"/>
  <outline>
    <contour>
      <point x="674" y="0" type="line"/>
      <point x="864" y="0" type="line"/>
      <point x="864" y="766" type="line"/>
      <point x="1355" y="1496" type="line"/>
      <point x="1271" y="1496" type="line"/>
      <point x="822" y="829" type="line"/>
      <point x="404" y="1500" type="line"/>
      <point x="184" y="1500" type="line"/>
      <point x="674" y="721" type="line"/>
    </contour>
    <contour>
      <point x="494" y="0" type="line"/>
      <point x="1064" y="0" type="line"/>
      <point x="1064" y="73" type="line"/>
      <point x="494" y="73" type="line"/>
    </contour>
    <contour>
      <point x="333" y="305" type="line"/>
      <point x="1213" y="305" type="line"/>
      <point x="1213" y="377" type="line"/>
      <point x="333" y="377" type="line"/>
    </contour>
    <contour>
      <point x="333" y="606" type="line"/>
      <point x="1213" y="606" type="line"/>
      <point x="1213" y="678" type="line"/>
      <point x="333" y="678" type="line"/>
    </contour>
    <contour>
      <point x="64" y="1427" type="line"/>
      <point x="645" y="1427" type="line"/>
      <point x="645" y="1500" type="line"/>
      <point x="64" y="1500" type="line"/>
    </contour>
    <contour>
      <point x="1039" y="1427" type="line"/>
      <point x="1434" y="1427" type="line"/>
      <point x="1434" y="1500" type="line"/>
      <point x="1039" y="1500" type="line"/>
    </contour>
  </outline>
</glyph>
<glyph name="section" format="2">
  <advance width="893"/>
  <unicode hex="00A7"/>
  <outline>
    <contour>
      <point x="228" y="1288" type="curve" smooth="yes"/>
      <point x="228" y="1382"/>
      <point x="327" y="1447"/>
      <point x="453" y="1447" type="curve" smooth="yes"/>
      <point x="587" y="1447"/>
      <point x="685" y="1399"/>
      <point x="716" y="1299" type="curve"/>
      <point x="706" y="1301"/>
      <point x="696" y="1302"/>
      <point x="687" y="1302" type="curve" smooth="yes"/>
      <point x="628" y="1302"/>
      <point x="573" y="1255"/>
      <point x="573" y="1191" type="curve" smooth="yes"/>
      <point x="573" y="1119"/>
      <point x="620" y="1080"/>
      <point x="681" y="1080" type="curve" smooth="yes"/>
      <point x="751" y="1080"/>
      <point x="801" y="1143"/>
      <point x="801" y="1225" type="curve" smooth="yes"/>
      <point x="801" y="1437"/>
      <point x="629" y="1520"/>
      <point x="453" y="1520" type="curve" smooth="yes"/>
      <point x="303" y="1520"/>
      <point x="123" y="1424"/>
      <point x="123" y="1216" type="curve" smooth="yes"/>
      <point x="123" y="853"/>
      <point x="681" y="928"/>
      <point x="681" y="666" type="curve" smooth="yes"/>
      <point x="681" y="605"/>
      <point x="612" y="564"/>
      <point x="564" y="520" type="curve"/>
      <point x="619" y="508" type="line"/>
      <point x="726" y="580"/>
      <point x="833" y="646"/>
      <point x="833" y="770" type="curve" smooth="yes"/>
      <point x="833" y="1077"/>
      <point x="228" y="1056"/>
    </contour>
    <contour>
      <point x="247" y="834" type="curve" smooth="yes"/>
      <point x="247" y="914"/>
      <point x="315" y="977"/>
      <point x="323" y="1000" type="curve"/>
      <point x="261" y="1000" type="line"/>
      <point x="193" y="948"/>
      <point x="75" y="855"/>
      <point x="75" y="710" type="curve" smooth="yes"/>
      <point x="75" y="424"/>
      <point x="677" y="455"/>
      <point x="677" y="223" type="curve" smooth="yes"/>
      <point x="677" y="129"/>
      <point x="604" y="53"/>
      <point x="427" y="53" type="curve" smooth="yes"/>
      <point x="305" y="53"/>
      <point x="181" y="88"/>
      <point x="145" y="206" type="curve"/>
      <point x="154" y="205"/>
      <point x="164" y="204"/>
      <point x="173" y="204" type="curve" smooth="yes"/>
      <point x="232" y="204"/>
      <point x="287" y="250"/>
      <point x="287" y="314" type="curve" smooth="yes"/>
      <point x="287" y="386"/>
      <point x="240" y="426"/>
      <point x="179" y="426" type="curve" smooth="yes"/>
      <point x="109" y="426"/>
      <point x="60" y="364"/>
      <point x="60" y="282" type="curve" smooth="yes"/>
      <point x="60" y="50"/>
      <point x="251" y="-20"/>
      <point x="427" y="-20" type="curve" smooth="yes"/>
      <point x="657" y="-20"/>
      <point x="817" y="116"/>
      <point x="817" y="324" type="curve" smooth="yes"/>
      <point x="817" y="687"/>
      <point x="247" y="571"/>
    </contour>
  </outline>
</glyph>
<glyph name="guillemetleft" format="2">
  <advance width="1389"/>
  <unicode hex="00AB"/>
  <outline>
    <contour>
      <point x="1270" y="290" type="line"/>
      <point x="1307" y="326" type="line"/>
      <point x="861" y="775" type="line"/>
      <point x="1307" y="1224" type="line"/>
      <point x="1270" y="1260" type="line"/>
      <point x="609" y="800" type="line"/>
      <point x="609" y="750" type="line"/>
    </contour>
    <contour>
      <point x="710" y="290" type="line"/>
      <point x="746" y="326" type="line"/>
      <point x="302" y="775" type="line"/>
      <point x="746" y="1224" type="line"/>
      <point x="710" y="1260" type="line"/>
      <point x="50" y="800" type="line"/>
      <point x="50" y="750" type="line"/>
    </contour>
  </outline>
</glyph>
<glyph name="micro" format="2">
  <advance width="1233"/>
  <unicode hex="00B5"/>
  <anchor x="656" y="0" name="bottom"/>
  <anchor x="942" y="0" name="ogonek"/>
  <anchor x="566" y="920" name="top"/>
  <outline>
    <contour>
      <point x="1012" y="920" type="line"/>
      <point x="691" y="920" type="line"/>
      <point x="691" y="847" type="line"/>
      <point x="832" y="847" type="line"/>
      <point x="832" y="469" type="line" smooth="yes"/>
      <point x="832" y="302"/>
      <point x="677" y="68"/>
      <point x="525" y="68" type="curve" smooth="yes"/>
      <point x="418" y="68"/>
      <point x="402" y="150"/>
      <point x="402" y="318" type="curve" smooth="yes"/>
      <point x="402" y="920" type="line"/>
      <point x="82" y="920" type="line"/>
      <point x="82" y="847" type="line"/>
      <point x="222" y="847" type="line"/>
      <point x="222" y="-242" type="line" smooth="yes"/>
      <point x="222" y="-422"/>
      <point x="361" y="-520"/>
      <point x="502" y="-520" type="curve" smooth="yes"/>
      <point x="618" y="-520"/>
      <point x="669" y="-458"/>
      <point x="669" y="-380" type="curve" smooth="yes"/>
      <point x="669" y="-304"/>
      <point x="612" y="-246"/>
      <point x="546" y="-246" type="curve" smooth="yes"/>
      <point x="480" y="-246"/>
      <point x="423" y="-306"/>
      <point x="423" y="-372" type="curve" smooth="yes"/>
      <point x="423" y="-396"/>
      <point x="428" y="-422"/>
      <point x="436" y="-445" type="curve"/>
      <point x="357" y="-422"/>
      <point x="294" y="-358"/>
      <point x="294" y="-242" type="curve" smooth="yes"/>
      <point x="294" y="38" type="line"/>
      <point x="334" y="1"/>
      <point x="397" y="-20"/>
      <point x="491" y="-20" type="curve" smooth="yes"/>
      <point x="667" y="-20"/>
      <point x="778" y="126"/>
      <point x="832" y="272" type="curve"/>
      <point x="832" y="0" type="line"/>
      <point x="1152" y="0" type="line"/>
      <point x="1152" y="73" type="line"/>
      <point x="1012" y="73" type="line"/>
    </contour>
  </outline>
</glyph>
<glyph name="onehalf" format="2">
  <advance width="1339"/>
  <unicode hex="00BD"/>
  <outline>
    <contour>
      <point x="63" y="-200" type="line"/>
      <point x="137" y="-200" type="line"/>
      <point x="1068" y="1300" type="line"/>
      <point x="996" y="1300" type="line"/>
    </contour>
    <contour>
      <point x="44" y="712" type="line"/>
      <point x="446" y="712" type="line"/>
      <point x="446" y="755.8" type="line"/>
      <point x="44" y="755.8" type="line"/>
    </contour>
    <contour>
      <point x="730" y="-202" type="line"/>
      <point x="1299.4" y="-202" type="line"/>
      <point x="1299.4" y="-4" type="line"/>
      <point x="1256.2" y="-4" type="line"/>
      <point x="1256.2" y="-94" type="line"/>
      <point x="826.6" y="-94" type="line"/>
      <point x="1162.6" y="234.2" type="line" smooth="yes"/>
      <point x="1226.8" y="297.2"/>
      <point x="1274.8" y="362.6"/>
      <point x="1274.8" y="482.6" type="curve" smooth="yes"/>
      <point x="1274.8" y="602.6"/>
      <point x="1181.2" y="710"/>
      <point x="1012" y="710" type="curve" smooth="yes"/>
      <point x="832.6" y="710"/>
      <point x="746.2" y="588.8"/>
      <point x="746.2" y="448.4" type="curve" smooth="yes"/>
      <point x="746.2" y="386"/>
      <point x="778" y="352.4"/>
      <point x="820" y="352.4" type="curve" smooth="yes"/>
      <point x="862" y="352.4"/>
      <point x="895" y="381.2"/>
      <point x="895" y="429.2" type="curve" smooth="yes"/>
      <point x="895" y="471.2"/>
      <point x="860.2" y="496.4"/>
      <point x="824.8" y="496.4" type="curve" smooth="yes"/>
      <point x="785.2" y="496.4"/>
      <point x="747.4" y="472.4"/>
      <point x="747.4" y="448.4" type="curve"/>
      <point x="788.2" y="448.4" type="line"/>
      <point x="788.2" y="574.4"/>
      <point x="863.2" y="659"/>
      <point x="976" y="659" type="curve" smooth="yes"/>
      <point x="1079.2" y="659"/>
      <point x="1154.8" y="585.8"/>
      <point x="1154.8" y="458" type="curve" smooth="yes"/>
      <point x="1154.8" y="345.2"/>
      <point x="1085.2" y="228.2"/>
      <point x="989.2" y="132.2" type="curve" smooth="yes"/>
      <point x="730" y="-124" type="line"/>
    </contour>
    <contour>
      <point x="199.4" y="724" type="line"/>
      <point x="314" y="724" type="line"/>
      <point x="314" y="1612" type="line"/>
      <point x="64.4" y="1612" type="line"/>
      <point x="64.4" y="1568.2" type="line"/>
      <point x="199.4" y="1568.2" type="line"/>
    </contour>
  </outline>
</glyph>
<glyph name="longs" format="2">
  <advance width="822"/>
  <unicode hex="017F"/>
  <anchor x="346" y="0" name="bottom"/>
  <anchor x="636" y="1497" name="top"/>
  <outline>
    <contour>
      <point x="646" y="1520" type="curve" smooth="yes"/>
      <point x="386" y="1520"/>
      <point x="252" y="1285"/>
      <point x="252" y="1023" type="curve" smooth="yes"/>
      <point x="252" y="73" type="line"/>
      <point x="72" y="73" type="line"/>
      <point x="72" y="0" type="line"/>
      <point x="672" y="0" type="line"/>
      <point x="672" y="73" type="line"/>
      <point x="432" y="73" type="line"/>
      <point x="432" y="1080" type="line" smooth="yes"/>
      <point x="432" y="1334"/>
      <point x="486" y="1447"/>
      <point x="646" y="1447" type="curve" smooth="yes"/>
      <point x="701" y="1447"/>
      <point x="747" y="1428"/>
      <point x="778" y="1400" type="curve"/>
      <point x="780" y="1406"/>
      <point x="781" y="1412"/>
      <point x="783" y="1418" type="curve"/>
      <point x="732" y="1421"/>
      <point x="666" y="1380"/>
      <point x="666" y="1307" type="curve" smooth="yes"/>
      <point x="666" y="1227"/>
      <point x="727" y="1198"/>
      <point x="777" y="1198" type="curve" smooth="yes"/>
      <point x="838" y="1198"/>
      <point x="892" y="1240"/>
      <point x="892" y="1322" type="curve" smooth="yes"/>
      <point x="892" y="1416"/>
      <point x="808" y="1520"/>
    </contour>
  </outline>
</glyph>
<glyph name="jdotless" format="2">
  <advance width="637"/>
  <unicode hex="0237"/>
  <anchor x="319" y="-400" name="bottom"/>
  <anchor x="319" y="920" name="top"/>
  <outline>
    <contour>
      <point x="128" y="-520" type="curve" smooth="yes"/>
      <point x="388" y="-520"/>
      <point x="441" y="-285"/>
      <point x="441" y="-23" type="curve" smooth="yes"/>
      <point x="441" y="920" type="line"/>
      <point x="82" y="920" type="line"/>
      <point x="82" y="847" type="line"/>
      <point x="262" y="847" type="line"/>
      <point x="262" y="40" type="line" smooth="yes"/>
      <point x="262" y="-214"/>
      <point x="297" y="-451"/>
      <point x="117" y="-451" type="curve" smooth="yes"/>
      <point x="18" y="-451"/>
      <point x="-43" y="-382"/>
      <point x="-43" y="-302" type="curve"/>
      <point x="-116" y="-302" type="line"/>
      <point x="-116" y="-362"/>
      <point x="-58" y="-395"/>
      <point x="0" y="-395" type="curve" smooth="yes"/>
      <point x="67" y="-395"/>
      <point x="107" y="-337"/>
      <point x="107" y="-286" type="curve" smooth="yes"/>
      <point x="107" y="-206"/>
      <point x="46" y="-178"/>
      <point x="-4" y="-178" type="curve" smooth="yes"/>
      <point x="-65" y="-178"/>
      <point x="-118" y="-220"/>
      <point x="-118" y="-302" type="curve" smooth="yes"/>
      <point x="-118" y="-415"/>
      <point x="-34" y="-520"/>
    </contour>
  </outline>
</glyph>
<glyph name="dotaccentcomb" format="2">
  <unicode hex="0307"/>
  <anchor x="500" y="920" name="_top"/>
  <outline>
    <contour>
      <point x="501" y="1269" type="curve" smooth="yes"/>
      <point x="567" y="1269"/>
      <point x="621" y="1324"/>
      <point x="621" y="1390" type="curve" smooth="yes"/>
      <point x="621" y="1456"/>
      <point x="567" y="1510"/>
      <point x="501" y="1510" type="curve" smooth="yes"/>
      <point x="435" y="1510"/>
      <point x="381" y="1456"/>
      <point x="381" y="1390" type="curve" smooth="yes"/>
      <point x="381" y="1324"/>
      <point x="435" y="1269"/>
    </contour>
  </outline>
</glyph>
<glyph name="ringcomb" format="2">
  <unicode hex="030A"/>
  <anchor x="500" y="1500" name="_top"/>
  <outline>
    <contour>
      <point x="500" y="1680" type="curve" smooth="yes"/>
      <point x="602" y="1680"/>
      <point x="680" y="1757"/>
      <point x="680" y="1859" type="curve" smooth="yes"/>
      <point x="680" y="1961"/>
      <point x="602" y="2040"/>
      <point x="500" y="2040" type="curve" smooth="yes"/>
      <point x="398" y="2040"/>
      <point x="321" y="1961"/>
      <point x="321" y="1859" type="curve" smooth="yes"/>
      <point x="321" y="1757"/>
      <point x="398" y="1680"/>
    </contour>
    <contour>
      <point x="500" y="1754" type="curve" smooth="yes"/>
      <point x="445" y="1754"/>
      <point x="399" y="1790"/>
      <point x="399" y="1859" type="curve" smooth="yes"/>
      <point x="399" y="1928"/>
      <point x="445" y="1967"/>
      <point x="500" y="1967" type="curve" smooth="yes"/>
      <point x="555" y="1967"/>
      <point x="602" y="1928"/>
      <point x="602" y="1859" type="curve" smooth="yes"/>
      <point x="602" y="1790"/>
      <point x="555" y="1754"/>
    </contour>
  </outline>
</glyph>
<glyph name="hungarumlautcomb" format="2">
  <unicode hex="030B"/>
  <anchor x="424" y="1500" name="_top"/>
  <outline>
    <contour>
      <point x="174" y="1670" type="line"/>
      <point x="426" y="1817" type="line" smooth="yes"/>
      <point x="458" y="1836"/>
      <point x="472" y="1882"/>
      <point x="453" y="1915" type="curve" smooth="yes"/>
      <point x="434" y="1948"/>
      <point x="383" y="1967"/>
      <point x="341" y="1926" type="curve" smooth="yes"/>
      <point x="129" y="1719" type="line"/>
    </contour>
    <contour>
      <point x="584" y="1670" type="line"/>
      <point x="836" y="1817" type="line" smooth="yes"/>
      <point x="868" y="1836"/>
      <point x="882" y="1882"/>
      <point x="863" y="1915" type="curve" smooth="yes"/>
      <point x="844" y="1948"/>
      <point x="793" y="1967"/>
      <point x="751" y="1926" type="curve" smooth="yes"/>
      <point x="539" y="1719" type="line"/>
    </contour>
  </outline>
</glyph>
<glyph name="Delta" format="2">
  <advance width="1267"/>
  <unicode hex="0394"/>
  <outline>
    <contour>
      <point x="60" y="0" type="line"/>
      <point x="144" y="0" type="line"/>
      <point x="580" y="1256" type="line"/>
      <point x="986" y="0" type="line"/>
      <point x="1207" y="0" type="line"/>
      <point x="677" y="1529" type="line"/>
      <point x="602" y="1529" type="line"/>
    </contour>
    <contour>
      <point x="111" y="0" type="line"/>
      <point x="1151" y="0" type="line"/>
      <point x="1151" y="73" type="line"/>
      <point x="111" y="73" type="line"/>
    </contour>
  </outline>
</glyph>
<glyph name="daggerdbl" format="2">
  <advance width="1186"/>
  <unicode hex="2021"/>
  <outline>
    <contour>
      <point x="593" y="-520" type="curve" smooth="yes"/>
      <point x="652" y="-520"/>
      <point x="693" y="-476"/>
      <point x="693" y="-398" type="curve" smooth="yes"/>
      <point x="693" y="-386"/>
      <point x="693" y="-375"/>
      <point x="691" y="-361" type="curve" smooth="yes"/>
      <point x="671" y="-220"/>
      <point x="634" y="-200"/>
      <point x="629" y="-13" type="curve"/>
      <point x="728" y="-20"/>
      <point x="793" y="-55"/>
      <point x="927" y="-74" type="curve" smooth="yes"/>
      <point x="941" y="-76"/>
      <point x="952" y="-76"/>
      <point x="964" y="-76" type="curve" smooth="yes"/>
      <point x="1042" y="-76"/>
      <point x="1086" y="-35"/>
      <point x="1086" y="24" type="curve" smooth="yes"/>
      <point x="1086" y="83"/>
      <point x="1042" y="124"/>
      <point x="964" y="124" type="curve" smooth="yes"/>
      <point x="952" y="124"/>
      <point x="941" y="124"/>
      <point x="927" y="122" type="curve" smooth="yes"/>
      <point x="793" y="103"/>
      <point x="728" y="68"/>
      <point x="629" y="61" type="curve"/>
      <point x="633" y="245"/>
      <point x="664" y="406"/>
      <point x="729" y="500" type="curve"/>
      <point x="664" y="594"/>
      <point x="633" y="755"/>
      <point x="629" y="939" type="curve"/>
      <point x="728" y="932"/>
      <point x="793" y="897"/>
      <point x="927" y="878" type="curve" smooth="yes"/>
      <point x="941" y="876"/>
      <point x="952" y="876"/>
      <point x="964" y="876" type="curve" smooth="yes"/>
      <point x="1042" y="876"/>
      <point x="1086" y="917"/>
      <point x="1086" y="976" type="curve" smooth="yes"/>
      <point x="1086" y="1035"/>
      <point x="1042" y="1076"/>
      <point x="964" y="1076" type="curve" smooth="yes"/>
      <point x="952" y="1076"/>
      <point x="941" y="1076"/>
      <point x="927" y="1074" type="curve" smooth="yes"/>
      <point x="793" y="1055"/>
      <point x="728" y="1020"/>
      <point x="629" y="1013" type="curve"/>
      <point x="634" y="1200"/>
      <point x="671" y="1220"/>
      <point x="691" y="1361" type="curve" smooth="yes"/>
      <point x="693" y="1375"/>
      <point x="693" y="1386"/>
      <point x="693" y="1398" type="curve" smooth="yes"/>
      <point x="693" y="1476"/>
      <point x="652" y="1520"/>
      <point x="593" y="1520" type="curve" smooth="yes"/>
      <point x="534" y="1520"/>
      <point x="493" y="1476"/>
      <point x="493" y="1398" type="curve" smooth="yes"/>
      <point x="493" y="1386"/>
      <point x="493" y="1375"/>
      <point x="495" y="1361" type="curve" smooth="yes"/>
      <point x="515" y="1220"/>
      <point x="552" y="1200"/>
      <point x="557" y="1013" type="curve"/>
      <point x="458" y="1020"/>
      <point x="393" y="1055"/>
      <point x="259" y="1074" type="curve" smooth="yes"/>
      <point x="245" y="1076"/>
      <point x="234" y="1076"/>
      <point x="222" y="1076" type="curve" smooth="yes"/>
      <point x="144" y="1076"/>
      <point x="100" y="1035"/>
      <point x="100" y="976" type="curve" smooth="yes"/>
      <point x="100" y="917"/>
      <point x="144" y="876"/>
      <point x="222" y="876" type="curve" smooth="yes"/>
      <point x="234" y="876"/>
      <point x="245" y="876"/>
      <point x="259" y="878" type="curve" smooth="yes"/>
      <point x="393" y="897"/>
      <point x="458" y="932"/>
      <point x="557" y="939" type="curve"/>
      <point x="553" y="755"/>
      <point x="522" y="594"/>
      <point x="457" y="500" type="curve"/>
      <point x="522" y="406"/>
      <point x="553" y="245"/>
      <point x="557" y="61" type="curve"/>
      <point x="458" y="68"/>
      <point x="393" y="103"/>
      <point x="259" y="122" type="curve" smooth="yes"/>
      <point x="245" y="124"/>
      <point x="234" y="124"/>
      <point x="222" y="124" type="curve" smooth="yes"/>
      <point x="144" y="124"/>
      <point x="100" y="83"/>
      <point x="100" y="24" type="curve" smooth="yes"/>
      <point x="100" y="-35"/>
      <point x="144" y="-76"/>
      <point x="222" y="-76" type="curve" smooth="yes"/>
      <point x="234" y="-76"/>
      <point x="245" y="-76"/>
      <point x="259" y="-74" type="curve" smooth="yes"/>
      <point x="393" y="-55"/>
      <point x="458" y="-20"/>
      <point x="557" y="-13" type="curve"/>
      <point x="552" y="-200"/>
      <point x="515" y="-220"/>
      <point x="495" y="-361" type="curve" smooth="yes"/>
      <point x="493" y="-375"/>
      <point x="493" y="-386"/>
      <point x="493" y="-398" type="curve" smooth="yes"/>
      <point x="493" y="-476"/>
      <point x="534" y="-520"/>
    </contour>
  </outline>
</glyph>
<glyph name="uniF8E9" format="2">
  <advance width="1159"/>
  <unicode hex="F8E9"/>
  <outline>
    <contour>
      <point x="570" y="1592" type="curve" smooth="yes"/>
      <point x="314" y="1592"/>
      <point x="108" y="1386"/>
      <point x="108" y="1130" type="curve" smooth="yes"/>
      <point x="108" y="874"/>
      <point x="314" y="668"/>
      <point x="570" y="668" type="curve" smooth="yes"/>
      <point x="826" y="668"/>
      <point x="1033" y="874"/>
      <point x="1033" y="1130" type="curve" smooth="yes"/>
      <point x="1033" y="1386"/>
      <point x="826" y="1592"/>
    </contour>
    <contour>
      <point x="570" y="712" type="curve" smooth="yes"/>
      <point x="338" y="712"/>
      <point x="152" y="898"/>
      <point x="152" y="1130" type="curve" smooth="yes"/>
      <point x="152" y="1362"/>
      <point x="338" y="1548"/>
      <point x="570" y="1548" type="curve" smooth="yes"/>
      <point x="802" y="1548"/>
      <point x="988" y="1362"/>
      <point x="988" y="1130" type="curve" smooth="yes"/>
      <point x="988" y="898"/>
      <point x="802" y="712"/>
    </contour>
    <contour>
      <point x="577" y="882" type="curve" smooth="yes"/>
      <point x="452" y="882"/>
      <point x="408" y="999"/>
      <point x="408" y="1130" type="curve" smooth="yes"/>
      <point x="408" y="1261"/>
      <point x="452" y="1378"/>
      <point x="577" y="1378" type="curve" smooth="yes"/>
      <point x="652" y="1378"/>
      <point x="718" y="1333"/>
      <point x="725" y="1252" type="curve"/>
      <point x="751" y="1252" type="line"/>
      <point x="751" y="1400" type="line"/>
      <point x="728" y="1400" type="line"/>
      <point x="696" y="1362" type="line"/>
      <point x="662" y="1390"/>
      <point x="617" y="1407"/>
      <point x="570" y="1407" type="curve" smooth="yes"/>
      <point x="424" y="1407"/>
      <point x="325" y="1290"/>
      <point x="325" y="1130" type="curve" smooth="yes"/>
      <point x="325" y="970"/>
      <point x="424" y="853"/>
      <point x="570" y="853" type="curve" smooth="yes"/>
      <point x="624" y="853"/>
      <point x="673" y="871"/>
      <point x="707" y="901" type="curve"/>
      <point x="736" y="860" type="line"/>
      <point x="758" y="860" type="line"/>
      <point x="758" y="1008" type="line"/>
      <point x="732" y="1008" type="line"/>
      <point x="725" y="934"/>
      <point x="666" y="882"/>
    </contour>
  </outline>
</glyph>
<glyph name="dcroat.sc" format="2">
  <advance width="1235"/>
  <anchor x="522" y="0" name="bottom"/>
  <anchor x="522" y="0" name="cedilla"/>
  <anchor x="563" y="1020" name="top"/>
  <outline>
    <contour>
      <point x="100" y="514" type="line"/>
      <point x="626" y="514" type="line"/>
      <point x="626" y="586" type="line"/>
      <point x="100" y="586" type="line"/>
    </contour>
    <component base="d.sc"/>
  </outline>
</glyph>
<glyph name="eng.sc" format="2">
  <advance width="1223"/>
  <outline>
    <contour>
      <point x="798" y="-520" type="curve" smooth="yes"/>
      <point x="1058" y="-520"/>
      <point x="1111" y="-283"/>
      <point x="1111" y="-23" type="curve" smooth="yes"/>
      <point x="1112" y="739" type="line"/>
      <point x="932" y="702" type="line"/>
      <point x="932" y="40" type="line" smooth="yes"/>
      <point x="932" y="-214"/>
      <point x="967" y="-451"/>
      <point x="787" y="-451" type="curve" smooth="yes"/>
      <point x="688" y="-451"/>
      <point x="627" y="-382"/>
      <point x="627" y="-302" type="curve"/>
      <point x="554" y="-302" type="line"/>
      <point x="554" y="-362"/>
      <point x="612" y="-395"/>
      <point x="670" y="-395" type="curve" smooth="yes"/>
      <point x="737" y="-395"/>
      <point x="777" y="-337"/>
      <point x="777" y="-286" type="curve" smooth="yes"/>
      <point x="777" y="-206"/>
      <point x="716" y="-178"/>
      <point x="666" y="-178" type="curve" smooth="yes"/>
      <point x="605" y="-178"/>
      <point x="552" y="-220"/>
      <point x="552" y="-302" type="curve" smooth="yes"/>
      <point x="552" y="-415"/>
      <point x="636" y="-520"/>
    </contour>
    <contour>
      <point x="82" y="0" type="line"/>
      <point x="531" y="0" type="line"/>
      <point x="531" y="73" type="line"/>
      <point x="82" y="73" type="line"/>
    </contour>
    <contour>
      <point x="222" y="0" type="line"/>
      <point x="393" y="0" type="line"/>
      <point x="393" y="1020" type="line"/>
      <point x="82" y="1020" type="line"/>
      <point x="82" y="947" type="line"/>
      <point x="222" y="947" type="line"/>
    </contour>
    <contour>
      <point x="348" y="551" type="curve"/>
      <point x="393" y="551" type="line"/>
      <point x="393" y="718"/>
      <point x="558" y="952"/>
      <point x="759" y="952" type="curve" smooth="yes"/>
      <point x="886" y="952"/>
      <point x="932" y="870"/>
      <point x="932" y="702" type="curve"/>
      <point x="1112" y="739" type="line"/>
      <point x="1112" y="913"/>
      <point x="1041" y="1039"/>
      <point x="792" y="1039" type="curve" smooth="yes"/>
      <point x="494" y="1039"/>
      <point x="348" y="716"/>
    </contour>
  </outline>
</glyph>
<glyph name="f_f" format="2">
  <advance width="1422"/>
  <outline>
    <contour>
      <point x="1246" y="1520" type="curve" smooth="yes"/>
      <point x="986" y="1520"/>
      <point x="852" y="1285"/>
      <point x="852" y="1023" type="curve" smooth="yes"/>
      <point x="852" y="920" type="line"/>
      <point x="72" y="920" type="line"/>
      <point x="72" y="847" type="line"/>
      <point x="852" y="847" type="line"/>
      <point x="852" y="73" type="line"/>
      <point x="72" y="73" type="line"/>
      <point x="72" y="0" type="line"/>
      <point x="1272" y="0" type="line"/>
      <point x="1272" y="73" type="line"/>
      <point x="1032" y="73" type="line"/>
      <point x="1032" y="847" type="line"/>
      <point x="1312" y="847" type="line"/>
      <point x="1312" y="920" type="line"/>
      <point x="1032" y="920" type="line"/>
      <point x="1032" y="1080" type="line" smooth="yes"/>
      <point x="1032" y="1334"/>
      <point x="1086" y="1447"/>
      <point x="1246" y="1447" type="curve" smooth="yes"/>
      <point x="1301" y="1447"/>
      <point x="1347" y="1428"/>
      <point x="1378" y="1400" type="curve"/>
      <point x="1380" y="1406"/>
      <point x="1381" y="1412"/>
      <point x="1383" y="1418" type="curve"/>
      <point x="1332" y="1421"/>
      <point x="1266" y="1380"/>
      <point x="1266" y="1307" type="curve" smooth="yes"/>
      <point x="1266" y="1227"/>
      <point x="1327" y="1198"/>
      <point x="1377" y="1198" type="curve" smooth="yes"/>
      <point x="1438" y="1198"/>
      <point x="1492" y="1240"/>
      <point x="1492" y="1322" type="curve" smooth="yes"/>
      <point x="1492" y="1416"/>
      <point x="1408" y="1520"/>
    </contour>
    <contour>
      <point x="691" y="1420" type="curve" smooth="yes"/>
      <point x="411" y="1420"/>
      <point x="252" y="1185"/>
      <point x="252" y="923" type="curve" smooth="yes"/>
      <point x="252" y="40" type="line"/>
      <point x="432" y="40" type="line"/>
      <point x="432" y="980" type="line" smooth="yes"/>
      <point x="432" y="1234"/>
      <point x="511" y="1347"/>
      <point x="691" y="1347" type="curve" smooth="yes"/>
      <point x="770" y="1347"/>
      <point x="830" y="1323"/>
      <point x="865" y="1292" type="curve"/>
      <point x="868" y="1297"/>
      <point x="870" y="1303"/>
      <point x="873" y="1308" type="curve"/>
      <point x="822" y="1311"/>
      <point x="756" y="1270"/>
      <point x="756" y="1197" type="curve" smooth="yes"/>
      <point x="756" y="1117"/>
      <point x="817" y="1088"/>
      <point x="867" y="1088" type="curve" smooth="yes"/>
      <point x="928" y="1088"/>
      <point x="982" y="1130"/>
      <point x="982" y="1212" type="curve" smooth="yes"/>
      <point x="982" y="1306"/>
      <point x="873" y="1420"/>
    </contour>
  </outline>
</glyph>
<glyph name="f_f_i" format="2">
  <advance width="1841"/>
  <outline>
    <contour>
      <point x="1430" y="0" type="line"/>
      <point x="1610" y="0" type="line"/>
      <point x="1610" y="920" type="line"/>
      <point x="72" y="920" type="line"/>
      <point x="72" y="847" type="line"/>
      <point x="1430" y="847" type="line"/>
    </contour>
    <contour>
      <point x="72" y="0" type="line"/>
      <point x="1750" y="0" type="line"/>
      <point x="1750" y="73" type="line"/>
      <point x="72" y="73" type="line"/>
    </contour>
    <contour>
      <point x="252" y="0" type="line"/>
      <point x="432" y="0" type="line"/>
      <point x="432" y="980" type="line" smooth="yes"/>
      <point x="432" y="1234"/>
      <point x="511" y="1347"/>
      <point x="691" y="1347" type="curve" smooth="yes"/>
      <point x="831" y="1347"/>
      <point x="907" y="1274"/>
      <point x="907" y="1212" type="curve"/>
      <point x="980" y="1212" type="line"/>
      <point x="980" y="1272"/>
      <point x="921" y="1308"/>
      <point x="867" y="1308" type="curve" smooth="yes"/>
      <point x="817" y="1308"/>
      <point x="756" y="1267"/>
      <point x="756" y="1197" type="curve" smooth="yes"/>
      <point x="756" y="1117"/>
      <point x="817" y="1088"/>
      <point x="867" y="1088" type="curve" smooth="yes"/>
      <point x="928" y="1088"/>
      <point x="982" y="1130"/>
      <point x="982" y="1212" type="curve" smooth="yes"/>
      <point x="982" y="1306"/>
      <point x="873" y="1420"/>
      <point x="691" y="1420" type="curve" smooth="yes"/>
      <point x="411" y="1420"/>
      <point x="252" y="1185"/>
      <point x="252" y="923" type="curve" smooth="yes"/>
    </contour>
    <contour>
      <point x="852" y="0" type="line"/>
      <point x="1032" y="0" type="line"/>
      <point x="1032" y="1080" type="line" smooth="yes"/>
      <point x="1032" y="1334"/>
      <point x="1126" y="1447"/>
      <point x="1306" y="1447" type="curve" smooth="yes"/>
      <point x="1426" y="1447"/>
      <point x="1547" y="1384"/>
      <point x="1547" y="1322" type="curve"/>
      <point x="1620" y="1322" type="line"/>
      <point x="1620" y="1382"/>
      <point x="1561" y="1418"/>
      <point x="1507" y="1418" type="curve" smooth="yes"/>
      <point x="1457" y="1418"/>
      <point x="1396" y="1377"/>
      <point x="1396" y="1307" type="curve" smooth="yes"/>
      <point x="1396" y="1227"/>
      <point x="1457" y="1198"/>
      <point x="1507" y="1198" type="curve" smooth="yes"/>
      <point x="1568" y="1198"/>
      <point x="1622" y="1240"/>
      <point x="1622" y="1322" type="curve" smooth="yes"/>
      <point x="1622" y="1416"/>
      <point x="1488" y="1520"/>
      <point x="1306" y="1520" type="curve" smooth="yes"/>
      <point x="1026" y="1520"/>
      <point x="852" y="1285"/>
      <point x="852" y="1023" type="curve" smooth="yes"/>
    </contour>
  </outline>
</glyph>
<glyph name="five.tosf" format="2">
  <advance width="1160"/>
  <outline>
    <contour>
      <point x="512" y="-525.018" type="curve" smooth="yes"/>
      <point x="814" y="-525.018"/>
      <point x="1019" y="-315.822"/>
      <point x="1019" y="-68.591" type="curve" smooth="yes"/>
      <point x="1019" y="216.676"/>
      <point x="846" y="386.886"/>
      <point x="584" y="386.886" type="curve" smooth="yes"/>
      <point x="382" y="386.886"/>
      <point x="266" y="281.337"/>
      <point x="234" y="210.971" type="curve"/>
      <point x="301" y="210.971" type="line"/>
      <point x="330" y="254.712"/>
      <point x="390" y="303.207"/>
      <point x="540" y="303.207" type="curve" smooth="yes"/>
      <point x="718" y="303.207"/>
      <point x="810" y="149.163"/>
      <point x="810" y="-68.591" type="curve" smooth="yes"/>
      <point x="810" y="-247.358"/>
      <point x="750" y="-453.701"/>
      <point x="492" y="-453.701" type="curve" smooth="yes"/>
      <point x="324" y="-453.701"/>
      <point x="216" y="-346.25"/>
      <point x="216" y="-260.67" type="curve"/>
      <point x="143" y="-260.67" type="line"/>
      <point x="143" y="-317.724"/>
      <point x="202" y="-353.858"/>
      <point x="254" y="-353.858" type="curve" smooth="yes"/>
      <point x="313" y="-353.858"/>
      <point x="368" y="-315.822"/>
      <point x="368" y="-249.26" type="curve" smooth="yes"/>
      <point x="368" y="-173.188"/>
      <point x="304" y="-142.76"/>
      <point x="254" y="-142.76" type="curve" smooth="yes"/>
      <point x="193" y="-142.76"/>
      <point x="141" y="-182.697"/>
      <point x="141" y="-260.67" type="curve" smooth="yes"/>
      <point x="141" y="-398.549"/>
      <point x="308" y="-525.018"/>
    </contour>
    <contour>
      <point x="214" y="210.971" type="line"/>
      <point x="287" y="210.971" type="line"/>
      <point x="287" y="749.175" type="line"/>
      <point x="950" y="749.175" type="line"/>
      <point x="950" y="1023.982" type="line"/>
      <point x="877" y="1023.982" type="line"/>
      <point x="877" y="920.335" type="line"/>
      <point x="214" y="920.335" type="line"/>
    </contour>
  </outline>
</glyph>
<glyph name="four.osf" format="2">
  <advance width="1099"/>
  <outline>
    <contour>
      <point x="767" y="0" type="line"/>
      <point x="1080" y="0" type="line"/>
      <point x="1080" y="73" type="line"/>
      <point x="767" y="73" type="line"/>
    </contour>
    <contour>
      <point x="767" y="73" type="line"/>
      <point x="196" y="73" type="line"/>
      <point x="670" y="736" type="line"/>
      <point x="670" y="-500" type="line"/>
      <point x="860" y="-500" type="line"/>
      <point x="860" y="920" type="line"/>
      <point x="700" y="920" type="line"/>
      <point x="59" y="0" type="line"/>
      <point x="767" y="0" type="line"/>
    </contour>
  </outline>
</glyph>
<glyph name="p.sc" format="2">
  <advance width="1085"/>
  <anchor x="311" y="0" name="bottom"/>
  <anchor x="515" y="1020" name="top"/>
  <outline>
    <contour>
      <point x="365" y="389" type="line"/>
      <point x="575" y="389" type="line" smooth="yes"/>
      <point x="876" y="389"/>
      <point x="1025" y="494"/>
      <point x="1025" y="704" type="curve" smooth="yes"/>
      <point x="1025" y="914"/>
      <point x="876" y="1020"/>
      <point x="575" y="1020" type="curve" smooth="yes"/>
      <point x="85" y="1020" type="line"/>
      <point x="85" y="947" type="line"/>
      <point x="575" y="947" type="line" smooth="yes"/>
      <point x="736" y="947"/>
      <point x="806" y="832"/>
      <point x="806" y="704" type="curve" smooth="yes"/>
      <point x="806" y="576"/>
      <point x="736" y="461"/>
      <point x="575" y="461" type="curve" smooth="yes"/>
      <point x="365" y="461" type="line"/>
    </contour>
    <contour>
      <point x="85" y="0" type="line"/>
      <point x="536" y="0" type="line"/>
      <point x="536" y="73" type="line"/>
      <point x="85" y="73" type="line"/>
    </contour>
    <contour>
      <point x="216" y="0" type="line"/>
      <point x="406" y="0" type="line"/>
      <point x="406" y="1020" type="line"/>
      <point x="216" y="1020" type="line"/>
    </contour>
  </outline>
</glyph>
<glyph name="x.sc" format="2">
  <advance width="1244"/>
  <anchor x="572" y="0" name="bottom"/>
  <anchor x="662" y="1020" name="top"/>
  <outline>
    <contour>
      <point x="895" y="0" type="line"/>
      <point x="1135" y="0" type="line"/>
      <point x="372" y="1020" type="line"/>
      <point x="140" y="1020" type="line"/>
    </contour>
    <contour>
      <point x="30" y="0" type="line"/>
      <point x="395" y="0" type="line"/>
      <point x="395" y="73" type="line"/>
      <point x="30" y="73" type="line"/>
    </contour>
    <contour>
      <point x="104" y="0" type="line"/>
      <point x="192" y="0" type="line"/>
      <point x="684" y="594" type="line"/>
      <point x="596" y="594" type="line"/>
    </contour>
    <contour>
      <point x="730" y="0" type="line"/>
      <point x="1214" y="0" type="line"/>
      <point x="1214" y="73" type="line"/>
      <point x="730" y="73" type="line"/>
    </contour>
    <contour>
      <point x="71" y="947" type="line"/>
      <point x="530" y="947" type="line"/>
      <point x="530" y="1020" type="line"/>
      <point x="71" y="1020" type="line"/>
    </contour>
    <contour>
      <point x="569" y="514" type="line"/>
      <point x="661" y="514" type="line"/>
      <point x="1064" y="1016" type="line"/>
      <point x="981" y="1016" type="line"/>
    </contour>
    <contour>
      <point x="807" y="947" type="line"/>
      <point x="1133" y="947" type="line"/>
      <point x="1133" y="1020" type="line"/>
      <point x="807" y="1020" type="line"/>
    </contour>
  </outline>
</glyph>
